# xmcd CD database file
#
# Track frame offsets:
#	150
#	24317
#	42540
#
# Disc length: 886 seconds
#
# Revision: 0
# Processed by: cddbd v1.5PL3 Copyright (c) Steve Scherf et al.
# Submitted via: CDex 1.40Release
#
DISCID=1d037403
DTITLE=加藤いづみ - Snow Bird
DYEAR=1900
DGENRE=Pop
TTITLE0=Snow Bird
TTITLE1=恋をしようよ
TTITLE2=Snow Bird(オリジナルカラオケ)
EXTD=
EXTT0=
EXTT1=
EXTT2=
PLAYORDER=
